<svg width="12" height="12" viewBox="0 0 12 12" fill="none" xmlns="http://www.w3.org/2000/svg"><path d="M4.52 5.7c.19 0 .34-.06.47-.18a.6.6 0 0 0 0-.89.65.65 0 0 0-.47-.18.66.66 0 0 0-.47.18.6.6 0 0 0 0 .88c.13.13.29.19.47.19ZM1.45.92v.01a.66.66 0 0 0-.36-.1.66.66 0 0 0-.47.19.57.57 0 0 0-.2.43v9.93c0 .17.07.32.2.44s.29.18.47.18c.1 0 .2-.02.3-.06l.02-.02 1.8-.86c.28-.1.42-.29.42-.58a.58.58 0 0 0-.2-.44.65.65 0 0 0-.46-.19.72.72 0 0 0-.33.08l-.05.03a.59.59 0 0 1-.26.06.57.57 0 0 1-.4-.14.52.52 0 0 1-.17-.37V3.38A.5.5 0 0 1 1.93 3a.56.56 0 0 1 .65-.1l.01.01.02.01 5.93 3 .1.05c.17.1.25.25.25.43a.5.5 0 0 1-.26.45l-.07.04L5.2 8.6V6.69a.58.58 0 0 0-.2-.45.67.67 0 0 0-.47-.18.68.68 0 0 0-.47.18.58.58 0 0 0-.2.45v2.98c0 .17.07.32.2.44s.29.18.47.18c.14 0 .26-.04.38-.1L11.12 7c.3-.1.46-.3.46-.6 0-.26-.13-.45-.4-.57L1.45.92Zm1.14 9.04c.03 0 .05-.02.05-.03l-.05.03Zm-.01-7.05.01.01.02.01-.03-.02Z" fill="#00aecd"/></svg>