<svg width="20" height="28" viewBox="0 0 20 28" fill="none" xmlns="http://www.w3.org/2000/svg">
    <path d="M10.625 5.875C10.625 5.52983 10.3452 5.25 10 5.25C9.65483 5.25 9.375 5.52983 9.375 5.875V7.125C9.375 7.47018 9.65483 7.75 10 7.75C10.3452 7.75 10.625 7.47018 10.625 7.125V5.875ZM4.6967 7.81281C4.45263 7.56874 4.05689 7.56874 3.81281 7.81281C3.56874 8.05689 3.56874 8.45263 3.81281 8.6967L4.6967 9.58059C4.94077 9.82466 5.3365 9.82466 5.58059 9.58059C5.82466 9.3365 5.82466 8.94077 5.58059 8.6967L4.6967 7.81281ZM16.1871 8.6967C16.4313 8.45263 16.4313 8.05689 16.1871 7.81281C15.9431 7.56874 15.5474 7.56874 15.3033 7.81281L14.4194 8.6967C14.1754 8.94077 14.1754 9.3365 14.4194 9.58059C14.6635 9.82466 15.0593 9.82466 15.3033 9.58059L16.1871 8.6967ZM1.875 13.375C1.52983 13.375 1.25 13.6548 1.25 14C1.25 14.3452 1.52983 14.625 1.875 14.625H3.125C3.47018 14.625 3.75 14.3452 3.75 14C3.75 13.6548 3.47018 13.375 3.125 13.375H1.875ZM16.875 13.375C16.5299 13.375 16.25 13.6548 16.25 14C16.25 14.3452 16.5299 14.625 16.875 14.625H18.125C18.4701 14.625 18.75 14.3452 18.75 14C18.75 13.6548 18.4701 13.375 18.125 13.375H16.875ZM5.58059 19.3033C5.82466 19.0593 5.82466 18.6635 5.58059 18.4194C5.3365 18.1754 4.94077 18.1754 4.6967 18.4194L3.81281 19.3033C3.56874 19.5474 3.56874 19.9431 3.81281 20.1871C4.05689 20.4313 4.45263 20.4313 4.6967 20.1871L5.58059 19.3033ZM15.3033 18.4194C15.0593 18.1754 14.6635 18.1754 14.4194 18.4194C14.1754 18.6635 14.1754 19.0593 14.4194 19.3033L15.3033 20.1871C15.5474 20.4313 15.9431 20.4313 16.1871 20.1871C16.4313 19.9431 16.4313 19.5474 16.1871 19.3033L15.3033 18.4194ZM10.625 20.875C10.625 20.5299 10.3452 20.25 10 20.25C9.65483 20.25 9.375 20.5299 9.375 20.875V22.125C9.375 22.4701 9.65483 22.75 10 22.75C10.3452 22.75 10.625 22.4701 10.625 22.125V20.875ZM10 9C7.23857 9 5 11.2386 5 14C5 16.7614 7.23857 19 10 19C12.7614 19 15 16.7614 15 14C15 11.2386 12.7614 9 10 9ZM6.25 14C6.25 11.9289 7.92894 10.25 10 10.25C12.0711 10.25 13.75 11.9289 13.75 14C13.75 16.0711 12.0711 17.75 10 17.75C7.92894 17.75 6.25 16.0711 6.25 14Z" fill="white" fill-opacity="0.84"/>
</svg>