<svg xmlns="http://www.w3.org/2000/svg" width="128" height="128" viewBox="0 0 128 128"><path d="M1059,332a7.972,7.972,0,0,1,7.2-7.919,64.152,64.152,0,0,0,0-20.162,7.945,7.945,0,0,1-4.013-14.275,63.9,63.9,0,0,0-8.74-15,8,8,0,0,1-11.1-11.1,63.9,63.9,0,0,0-15-8.739,7.944,7.944,0,0,1-14.275-4.013,64.147,64.147,0,0,0-20.162,0,7.944,7.944,0,0,1-14.275,4.013,63.9,63.9,0,0,0-15,8.739,8,8,0,0,1-11.1,11.1,63.909,63.909,0,0,0-8.739,15,7.945,7.945,0,0,1-4.013,14.275,64.147,64.147,0,0,0,0,20.162,7.945,7.945,0,0,1,4.013,14.275,63.909,63.909,0,0,0,8.739,15,8,8,0,0,1,11.1,11.1,63.905,63.905,0,0,0,15,8.74,7.945,7.945,0,0,1,14.275,4.013,64.147,64.147,0,0,0,20.162,0,7.945,7.945,0,0,1,14.275-4.013,63.906,63.906,0,0,0,15-8.74,8,8,0,0,1,11.1-11.1,63.9,63.9,0,0,0,8.74-15A7.961,7.961,0,0,1,1059,332Z" transform="translate(-939 -250)" fill="#a8a7a5"/><g transform="translate(18 18)"><circle cx="46" cy="46" r="46" fill="#fff"/></g><g transform="translate(24 24)"><circle cx="40" cy="40" r="40" fill="#b4f0e0"/></g><g transform="translate(22 22)"><path d="M1001.453,354.453a42,42,0,1,1,42-42A42.047,42.047,0,0,1,1001.453,354.453Zm0-80a38,38,0,1,0,38,38A38.043,38.043,0,0,0,1001.453,274.453Z" transform="translate(-959.453 -270.453)" fill="#2d2d2e"/></g><g transform="translate(34 14)"><rect width="4" height="4" fill="#2d2d2e"/></g><g transform="translate(62 6)"><rect width="4" height="4" fill="#2d2d2e"/></g><g transform="translate(62 118)"><rect width="4" height="4" fill="#2d2d2e"/></g><g transform="translate(90 14)"><rect width="4" height="4" fill="#2d2d2e"/></g><g transform="translate(34 110)"><rect width="4" height="4" fill="#2d2d2e"/></g><g transform="translate(90 110)"><rect width="4" height="4" fill="#2d2d2e"/></g><g transform="translate(110 34)"><rect width="4" height="4" fill="#2d2d2e"/></g><g transform="translate(110 90)"><rect width="4" height="4" fill="#2d2d2e"/></g><g transform="translate(14 90)"><rect width="4" height="4" fill="#2d2d2e"/></g><g transform="translate(14 34)"><rect width="4" height="4" fill="#2d2d2e"/></g><g transform="translate(118 62)"><rect width="4" height="4" fill="#2d2d2e"/></g><g transform="translate(6 62)"><rect width="4" height="4" fill="#2d2d2e"/></g><g transform="translate(42 42)"><g transform="translate(2 23.999)"><path d="M993.906,311.359l-14,8v4a6,6,0,0,0,6,6h28a6,6,0,0,0,6-6v-4l-14-8Z" transform="translate(-979.906 -311.359)" fill="#ff7552"/></g><g transform="translate(0 22.263)"><path d="M1014.047,331.481h-28a8.008,8.008,0,0,1-8-8v-5.161l15.007-8.576,1.984,3.473-12.991,7.423v2.841a4,4,0,0,0,4,4h28a4,4,0,0,0,4-4v-2.841l-12.991-7.423,1.984-3.473,15.007,8.576v5.161A8.008,8.008,0,0,1,1014.047,331.481Z" transform="translate(-978.047 -309.745)" fill="#2d2d2e"/></g><g transform="translate(12 2)"><path d="M1009.2,300.906c0-4-2-10-10-10s-10,6-10,10v2c0,6,4,12,10,12s10-6,10-12Z" transform="translate(-989.203 -290.906)" fill="#fff"/></g><g transform="translate(10)"><path d="M999.344,317.047c-7.412,0-12-7.267-12-14v-2c0-5.536,3.142-12,12-12s12,6.463,12,12v2C1011.344,309.78,1006.756,317.047,999.344,317.047Zm0-24c-7.221,0-8,5.594-8,8v2c0,4.809,3.059,10,8,10s8-5.19,8-10v-2C1007.344,298.642,1006.564,293.047,999.344,293.047Z" transform="translate(-987.344 -289.047)" fill="#2d2d2e"/></g></g></svg>