<svg xmlns="http://www.w3.org/2000/svg" width="40" height="40" viewBox="0 0 40 40"><rect width="40" height="40" fill="#fff" opacity="0"/><path d="M880.9,510.307a4.926,4.926,0,0,0-2.07-1.065,4.7,4.7,0,0,0,1.163-2.377,5.957,5.957,0,0,0,.072-.812v-.02a4.663,4.663,0,0,0-3.058-4.373,4.489,4.489,0,0,0-4.982,1.383,4.839,4.839,0,0,0-.588.947c.017.185.041.368.041.556a1.011,1.011,0,0,1-.009.137,6.6,6.6,0,0,1-.084.863,6.038,6.038,0,0,1-.373,1.261,4.754,4.754,0,0,0,1.161,2.427,4.835,4.835,0,0,0-1,.351,6.36,6.36,0,0,1,2.087,1.62c.119,0,.238-.016.359-.013h3.689a6.975,6.975,0,0,1,.8.025,2.695,2.695,0,0,1,1.19.481c.038.026.077.054.114.082l.012.011c.088.077.177.159.266.245a2.768,2.768,0,0,1,.239.271l.011.016c.02.027.038.052.06.087a3.647,3.647,0,0,1,.3.542,3.762,3.762,0,0,1,.189.709c.01.107.017.215.019.323,0,.022,0,.045,0,.067v.961c0,.1,0,.2,0,.3,0,.07,0,.139,0,.209l-.133,0-5.54,0c0,.026,0,.053,0,.078v1.713c0,.136,0,.219-.007.3l0,.013h5.778c.05,0,.1.005.148.005a2.164,2.164,0,0,0,.771-.143,1.726,1.726,0,0,0,1.039-1.582v-1.7a1.111,1.111,0,0,0,.01-.143A5.026,5.026,0,0,0,880.9,510.307Zm-7.881-4.586a3.4,3.4,0,0,1,.17-.629,3.231,3.231,0,0,1,.258-.473c.03-.045.062-.091.089-.128l.029-.039c.054-.063.11-.125.169-.186a2.488,2.488,0,0,1,.209-.194.515.515,0,0,0,.078-.065c.012-.008.024-.017.039-.026a3.277,3.277,0,0,1,.466-.267,3.478,3.478,0,0,1,.638-.179,3.439,3.439,0,0,1,.673,0,2.413,2.413,0,0,1,1.083.437c.045.031.092.065.126.091l.038.03c.063.055.123.113.184.172s.128.139.188.211a.522.522,0,0,0,.059.077l.031.043a3.392,3.392,0,0,1,.26.474,3.606,3.606,0,0,1,.176.656c.009.1.014.194.016.291l0,.047a2.364,2.364,0,0,1-.185.979,3.283,3.283,0,0,1-.26.476c-.03.046-.062.093-.088.129l-.028.037c-.054.064-.111.127-.17.189a2.726,2.726,0,0,1-.211.2.422.422,0,0,0-.074.062l-.039.027a3.431,3.431,0,0,1-.468.268,3.613,3.613,0,0,1-.632.177,3.246,3.246,0,0,1-.683,0,3.2,3.2,0,0,1-.614-.172,3.234,3.234,0,0,1-.463-.263c-.045-.031-.091-.065-.129-.093l-.034-.027c-.064-.055-.124-.114-.185-.173a2.817,2.817,0,0,1-.19-.213.438.438,0,0,0-.054-.07l-.034-.049a3.445,3.445,0,0,1-.261-.474,3.655,3.655,0,0,1-.175-.651A3.593,3.593,0,0,1,873.021,505.721Z" transform="translate(-849.576 -489.668)" fill="#5b5756"/><path d="M874.478,513.318a7.012,7.012,0,0,0-1.082-1.968,6.342,6.342,0,0,0-3.639-2.278c-.108-.019-.219-.025-.329-.041a5.893,5.893,0,0,0,1.958-3.485,6.6,6.6,0,0,0,.084-.863,1.011,1.011,0,0,0,.009-.137,5.885,5.885,0,0,0-3.84-5.548,5.734,5.734,0,0,0-6.332,1.761,6.09,6.09,0,0,0-1.347,3.391A5.964,5.964,0,0,0,862,509.034c-.181.028-.362.046-.542.086a6.556,6.556,0,0,0-4.775,5.258,15.751,15.751,0,0,0-.1,2.413l0,.233a5.523,5.523,0,0,0,.009.577,2.183,2.183,0,0,0,1.669,2.008,4.644,4.644,0,0,0,.733.059c.062,0,.124,0,.186,0h13.507a2.149,2.149,0,0,0,1.566-.687,2.31,2.31,0,0,0,.579-1.368c.008-.083.007-.166.007-.3v-1.713c0-.032,0-.065,0-.1A6.563,6.563,0,0,0,874.478,513.318Zm-12.44-9.288a4.943,4.943,0,0,1,.254-.949,4.786,4.786,0,0,1,.368-.679l.156-.221c.087-.11.184-.214.281-.315a4.378,4.378,0,0,1,.338-.311l.007-.005c.052-.039.1-.079.164-.117a3.565,3.565,0,0,1,1.6-.639,3.6,3.6,0,0,1,2.606.634l.216.16c.107.089.209.188.309.288a4.472,4.472,0,0,1,.3.342l.005.006c.039.054.079.109.117.171a3.73,3.73,0,0,1,.628,1.645q.023.2.027.4c0,.014,0,.028,0,.043v.072a4.369,4.369,0,0,1-.027.483,3.706,3.706,0,0,1-.622,1.64l-.057.083-.064.093-.035.045c-.087.109-.184.214-.282.315a4.417,4.417,0,0,1-.334.309c-.055.042-.111.084-.174.124a4.464,4.464,0,0,1-.679.384,4.407,4.407,0,0,1-.91.254,4.5,4.5,0,0,1-1.025,0,4.637,4.637,0,0,1-.923-.257,4.558,4.558,0,0,1-.663-.375l-.217-.16c-.107-.089-.209-.187-.307-.286a4.272,4.272,0,0,1-.306-.347l0,0c-.039-.054-.078-.109-.117-.172a4.573,4.573,0,0,1-.376-.692,4.73,4.73,0,0,1-.25-.937A4.962,4.962,0,0,1,862.038,504.03Zm10.735,12.521c.014.31.013.624,0,.934l-.023.04-.039.022h0c-.112.006-.227.007-.348,0h-12.5c-.368,0-.736,0-1.109,0h-.008s-.011,0-.012,0-.03-.016-.044-.025l-.021-.038,0-.011a7.331,7.331,0,0,1,0-.8V515.55a6.053,6.053,0,0,1,.034-.66,5.35,5.35,0,0,1,.3-1.107,5.541,5.541,0,0,1,.444-.819c.037-.055.075-.112.117-.17l.074-.09a4.283,4.283,0,0,1,.318-.356c.11-.113.225-.22.351-.327l.14-.113.127-.091a5.165,5.165,0,0,1,.766-.434,5.107,5.107,0,0,1,1.069-.3,7.721,7.721,0,0,1,.975-.039h4.53a9.507,9.507,0,0,1,1.145.039,5.382,5.382,0,0,1,1.067.3,5.058,5.058,0,0,1,.825.474l.022.016.1.076c.033.025.1.074.125.1a4.564,4.564,0,0,1,.35.333c.11.115.218.239.317.363l.042.052c.027.036.052.074.077.111l.052.077a5.488,5.488,0,0,1,.424.788,5.379,5.379,0,0,1,.3,1.151c.018.161.029.323.031.485,0,.03,0,.06,0,.091Z" transform="translate(-849.576 -489.668)" fill="#ff7453"/></svg>