<svg width="314" height="160" viewBox="0 0 314 160" fill="none" xmlns="http://www.w3.org/2000/svg">
<g clip-path="url(#clip0_589_12221)">
<path opacity="0.9" d="M16.297 61.712V7.56201H0V2.51201H38.012V7.56201H21.675V61.712H16.297ZM52.328 7.19801V29.075H57.747C62.7617 29.075 66.2597 28.273 68.241 26.669C70.2223 25.065 71.213 22.3353 71.213 18.48C71.213 14.4093 70.1887 11.5113 68.14 9.78601C66.0913 8.06068 62.6267 7.19801 57.746 7.19801H52.328ZM82.899 61.712H76.348L55.563 33.483H52.328V61.712H46.949V2.51201H57.827C64.243 2.51201 69.0483 3.84535 72.243 6.51201C75.4377 9.17868 77.0353 13.222 77.036 18.642C77.036 23.252 75.6693 26.878 72.936 29.52C70.2027 32.162 66.436 33.483 61.636 33.483L82.899 61.712ZM97.699 37.044H118.323L108.214 11.282L97.699 37.044ZM82.576 61.712L108.576 0.164014L133.488 61.712H127.624L120.062 41.652H95.88L88.035 61.712H82.576ZM187.676 13.345C185.007 10.9778 181.958 9.07746 178.657 7.72401C175.567 6.50756 172.273 5.88992 168.952 5.90401C161.295 5.90401 155.075 8.33035 150.29 13.183C145.505 18.0357 143.113 24.3577 143.112 32.149C143.059 35.7445 143.654 39.3202 144.871 42.704C146.043 45.8306 147.87 48.6706 150.229 51.034C152.551 53.3728 155.322 55.2163 158.377 56.453C161.507 57.7066 164.852 58.3383 168.224 58.313C171.616 58.3139 174.982 57.7255 178.172 56.574C181.489 55.369 184.589 53.6346 187.352 51.438V57.746C184.465 59.5125 181.359 60.8911 178.112 61.846C174.983 62.7856 171.734 63.2693 168.467 63.282C164.261 63.297 160.089 62.5149 156.174 60.977C152.41 59.5336 148.982 57.3313 146.105 54.507C143.246 51.6885 141.014 48.2987 139.554 44.559C138.037 40.5977 137.283 36.3855 137.33 32.144C137.295 27.9113 138.071 23.7111 139.615 19.77C141.075 16.0374 143.315 12.6597 146.186 9.86301C149.067 7.07341 152.486 4.8996 156.235 3.47401C160.131 1.9423 164.282 1.16026 168.468 1.16901C172.024 1.1383 175.564 1.66502 178.957 2.73001C182.146 3.74917 185.126 5.33115 187.757 7.40101L187.676 13.345ZM199.322 61.712V2.51201H204.7V30.248L231.471 2.51201H238.507L210.443 30.812L239.843 61.712H232.043L204.701 31.663V61.712H199.322ZM246.878 61.712V2.51201H252.257V61.712H246.878ZM267.017 61.712V0.00201416L308.952 49.539V2.51201H313.966V63.448L272.072 13.83V61.712H267.017Z" fill="#464545"/>
<path d="M0 147.374L9.26 136.895C10.3721 139.698 12.3479 142.075 14.901 143.68C17.5081 145.335 20.5405 146.194 23.628 146.154C27.5307 146.154 30.617 145.232 32.887 143.387C33.9976 142.498 34.8842 141.361 35.4757 140.067C36.0672 138.773 36.3471 137.359 36.293 135.937C36.293 132.248 32.5147 128.576 24.958 124.922C22.51 123.751 20.5767 122.793 19.158 122.048C12.346 118.501 7.62733 115.033 5.002 111.645C2.34951 108.175 0.960623 103.904 1.065 99.538C1.00975 96.4857 1.67192 93.463 2.9982 90.7133C4.32449 87.9637 6.27784 85.5638 8.701 83.707C13.7917 79.5736 20.399 77.507 28.523 77.507C32.7285 77.3998 36.9037 78.2456 40.736 79.981C44.3444 81.7867 47.4585 84.4443 49.809 87.724L39.965 97.144C38.9412 95.0325 37.323 93.2662 35.309 92.062C33.1657 90.8922 30.7497 90.3137 28.309 90.386C25.4404 90.2481 22.6148 91.1239 20.327 92.86C19.3561 93.6182 18.5761 94.5933 18.0496 95.7071C17.5231 96.8208 17.2647 98.0424 17.295 99.274C17.295 103.389 21.304 107.15 29.322 110.556C30.9187 111.23 32.1427 111.763 32.994 112.156C39.594 115.171 44.481 118.577 47.655 122.373C50.7617 125.982 52.454 130.595 52.418 135.357C52.418 142.665 49.9257 148.492 44.941 152.838C39.9563 157.184 33.26 159.355 24.852 159.352C19.5758 159.494 14.336 158.439 9.526 156.266C5.47723 154.403 2.13672 151.285 0 147.374ZM95.148 93.525V157.274H78.439V93.525H59.388V79.374H114.199V93.525H95.148ZM192.105 79.374V127.849C192.105 138.421 189.32 146.315 183.75 151.53C178.18 156.745 169.79 159.353 158.58 159.352C147.192 159.352 138.713 156.744 133.143 151.529C127.573 146.314 124.788 138.42 124.788 127.848V79.374H141.338V125.241C141.338 131.662 142.757 136.496 145.595 139.741C148.433 142.986 152.672 144.609 158.313 144.61C163.989 144.61 168.282 142.977 171.191 139.71C174.1 136.443 175.555 131.619 175.555 125.236V79.374H192.105ZM209.347 157.274V79.374H255.218V93.419H226.003V109.436H255.218V123.591H226.003V157.274H209.347ZM268.096 157.274V79.374H313.967V93.419H284.752V109.436H313.967V123.591H284.752V157.274H268.096Z" fill="#FA7F60"/>
</g>
<defs>
<clipPath id="clip0_589_12221">
<rect width="313.967" height="159.352" fill="white"/>
</clipPath>
</defs>
</svg>
