<svg xmlns="http://www.w3.org/2000/svg" width="40" height="40" viewBox="0 0 40 40"><rect width="40" height="40" fill="#fff" opacity="0"/><path d="M842,537h-6a3,3,0,0,0-3,3v6a3,3,0,0,0,3,3h6a3,3,0,0,0,3-3v-6A3,3,0,0,0,842,537Zm1,9a1,1,0,0,1-1,1h-6a1,1,0,0,1-1-1v-6a1,1,0,0,1,1-1h2v2a1,1,0,0,0,2,0v-2h2a1,1,0,0,1,1,1Z" transform="translate(-819.271 -530)" fill="#aaa6a5"/><path d="M835,550h-6a3,3,0,0,0-3,3v6a3,3,0,0,0,3,3h6a3,3,0,0,0,3-3v-6A3,3,0,0,0,835,550Zm1,9a1,1,0,0,1-1,1h-6a1,1,0,0,1-1-1v-6a1,1,0,0,1,1-1h2v2a1,1,0,0,0,2,0v-2h2a1,1,0,0,1,1,1Z" transform="translate(-819.271 -530)" fill="#5b5756"/><path d="M849,550h-6a3,3,0,0,0-3,3v6a3,3,0,0,0,3,3h6a3,3,0,0,0,3-3v-6A3,3,0,0,0,849,550Zm1,9a1,1,0,0,1-1,1h-6a1,1,0,0,1-1-1v-6a1,1,0,0,1,1-1h2v2a1,1,0,0,0,2,0v-2h2a1,1,0,0,1,1,1Z" transform="translate(-819.271 -530)" fill="#ff7453"/></svg>