<svg xmlns="http://www.w3.org/2000/svg" width="150.112" height="103.202" viewBox="0 0 150.112 103.202"><g transform="translate(53.947 25.8)"><path d="M796,120.837l19.462-24.77A21.109,21.109,0,0,1,832.061,88H847.6v32.837L796,153.674Z" transform="translate(-796 -88)" fill="#b4f0e0"/></g><g transform="translate(114.929 49.255)"><rect width="33" height="42" transform="translate(0.071 -0.255)" fill="#a8a7a5"/></g><g transform="translate(68.707 52.288)"><rect width="9.951" height="4.691" transform="translate(0 7.036) rotate(-45)" fill="#2d2d2e"/></g><g transform="translate(53.947 25.8)"><path d="M796,153.674l51.6-32.837V88h9.382v65.674Z" transform="translate(-796 -88)" fill="#ff7552"/></g><g transform="translate(32.837 58.637)"><rect width="21" height="32" transform="translate(0.163 0.363)" fill="#ff7552"/></g><g transform="translate(53.947 51.601)"><path d="M817.109,135.8H796V117.036L803.036,110l14.073,14.073Z" transform="translate(-796 -110)" fill="#595857"/></g><g transform="translate(42.219 46.91)"><path d="M893.893,152.91H786v-4.691H889.2V110.691H858.711V106h35.182Z" transform="translate(-786 -106)" fill="#2d2d2e"/></g><g transform="translate(51.601 58.637)"><rect width="4" height="32" transform="translate(0.399 0.363)" fill="#2d2d2e"/></g><g transform="translate(32.837 23.455)"><path d="M862.438,154.019h-4.691V90.691H835.17a18.661,18.661,0,0,0-14.756,7.171l-20.165,25.666H778v-4.691h19.97l18.757-23.872A23.321,23.321,0,0,1,835.17,86h27.268Z" transform="translate(-778 -86)" fill="#2d2d2e"/></g><g transform="translate(0 98.511)"><rect width="150" height="4" transform="translate(0 0.489)" fill="#2d2d2e"/></g><g transform="translate(110.239 72.71)"><circle cx="14" cy="14" r="14" transform="translate(-0.239 0.29)" fill="#595857"/></g><g transform="translate(107.893 70.365)"><path d="M858.418,158.837a16.419,16.419,0,1,1,16.419-16.419A16.437,16.437,0,0,1,858.418,158.837Zm0-28.146a11.727,11.727,0,1,0,11.728,11.727A11.741,11.741,0,0,0,858.418,130.691Z" transform="translate(-842 -126)" fill="#2d2d2e"/></g><g transform="translate(0 75.056)"><rect width="33" height="5" transform="translate(0 -0.056)" fill="#2d2d2e"/></g><path d="M794.565,159.82H780.492V110.564H750v-4.691h35.182v49.255h4.691V66h4.691Z" transform="translate(-750 -66)" fill="#2d2d2e"/><g transform="translate(0 44.564)"><rect width="30" height="30" transform="translate(0 0.436)" fill="#a8a7a5"/></g><g transform="translate(4.691 65.674)"><rect width="4" height="4" transform="translate(0.309 0.326)" fill="#2d2d2e"/></g><g transform="translate(14.073 65.674)"><rect width="5" height="4" transform="translate(-0.073 0.326)" fill="#2d2d2e"/></g><g transform="translate(0 9.382)"><rect width="30" height="31" transform="translate(0 -0.382)" fill="#a8a7a5"/></g><g transform="translate(4.691 30.491)"><rect width="4" height="5" transform="translate(0.309 -0.491)" fill="#2d2d2e"/></g><g transform="translate(14.073 30.491)"><rect width="5" height="5" transform="translate(-0.073 -0.491)" fill="#2d2d2e"/></g><g transform="translate(52.687 25.8)"><path d="M797.445,155.653l-2.52-3.958,50.515-32.145V88h4.691v34.124Z" transform="translate(-794.926 -88)" fill="#2d2d2e"/></g><g transform="translate(119.621 82.092)"><path d="M856.691,145.382a4.691,4.691,0,1,1,4.691-4.691A4.7,4.7,0,0,1,856.691,145.382Zm0-4.695v0Z" transform="translate(-852 -136)" fill="#2d2d2e"/></g><g transform="translate(39.874 65.674)"><g transform="translate(2.345 2.345)"><circle cx="16.5" cy="16.5" r="16.5" transform="translate(-0.219 -0.019)" fill="#595857"/></g><g transform="translate(14.073 14.073)"><path d="M800.691,143.382a4.691,4.691,0,1,1,4.691-4.691A4.7,4.7,0,0,1,800.691,143.382Zm0-4.695v0Z" transform="translate(-796 -134)" fill="#2d2d2e"/></g><path d="M802.764,159.528a18.764,18.764,0,1,1,18.764-18.764A18.786,18.786,0,0,1,802.764,159.528Zm0-32.837a14.073,14.073,0,1,0,14.073,14.073A14.089,14.089,0,0,0,802.764,126.691Z" transform="translate(-784 -122)" fill="#2d2d2e"/></g><g transform="translate(103.202 70.365)"><rect width="5" height="5" transform="translate(-0.202 -0.365)" fill="#2d2d2e"/></g><g transform="translate(136.039 56.292)"><rect width="12" height="5" transform="translate(-0.039 -0.292)" fill="#2d2d2e"/></g><g transform="translate(136.039 65.674)"><rect width="12" height="4" transform="translate(-0.039 0.326)" fill="#2d2d2e"/></g><g transform="translate(71.052 47.597)"><rect width="4.691" height="13.268" transform="translate(0 3.317) rotate(-45)" fill="#2d2d2e"/></g><g transform="translate(35.183)"><rect width="5" height="56" transform="translate(-0.183)" fill="#ff7552"/></g></svg>