<svg xmlns="http://www.w3.org/2000/svg" width="40" height="40" viewBox="0 0 40 40"><g transform="translate(-782.75 -491)"><rect width="40" height="40" transform="translate(782.75 491)" fill="#fff" opacity="0"/><path d="M809.75,513a6,6,0,1,0,6,6A6.006,6.006,0,0,0,809.75,513Zm0,10a4,4,0,1,1,4-4A4,4,0,0,1,809.75,523Z" fill="#ff7453"/><path d="M809.75,516a1,1,0,0,0-1,1v1.586l-.707.707a1,1,0,1,0,1.414,1.414l1-1a1,1,0,0,0,.293-.707v-2A1,1,0,0,0,809.75,516Z" fill="#ff7453"/></g><g transform="translate(-782.75 -491)"><path d="M803.75,519h-10a1,1,0,0,1-1-1V500a1,1,0,0,1,1-1h14a1,1,0,0,1,1,1v13.09a5.6,5.6,0,0,1,2,0V500a3,3,0,0,0-3-3h-14a3,3,0,0,0-3,3v18a3,3,0,0,0,3,3H804.1A5.976,5.976,0,0,1,803.75,519Z" fill="#aaa6a5"/></g><g transform="translate(-782.75 -491)"><path d="M796.75,504h8a1,1,0,0,0,0-2h-8a1,1,0,0,0,0,2Z" fill="#5d5958"/><path d="M805,506h-8a1,1,0,0,0,0,2h8a1,1,0,0,0,0-2Z" fill="#5d5958"/><path d="M805,510h-8a1,1,0,0,0,0,2h8a1,1,0,0,0,0-2Z" fill="#5d5958"/><path d="M801,514h-4a1,1,0,0,0,0,2h4a1,1,0,0,0,0-2Z" fill="#5d5958"/></g></svg>