<svg xmlns="http://www.w3.org/2000/svg" width="128" height="120" viewBox="0 0 128 120"><g transform="translate(-748 -220)"><rect width="128" height="4" transform="translate(748 336)" fill="#2d2d2e"/></g><g transform="translate(-748 -220)"><rect width="56" height="56" transform="translate(748 280)" fill="#595857"/></g><g transform="translate(-748 -220)"><rect width="56" height="56" transform="translate(808 280)" fill="#ff7552"/></g><g transform="translate(-748 -220)"><rect width="56" height="56" transform="translate(748 220)" fill="#a8a7a5"/></g><g transform="translate(-748 -220)"><rect width="4" height="116" transform="translate(804 220)" fill="#2d2d2e"/></g><g transform="translate(-748 -220)"><rect width="116" height="4" transform="translate(748 276)" fill="#2d2d2e"/></g><g transform="translate(-748 -220)"><rect width="16" height="4" transform="translate(756 228)" fill="#2d2d2e"/></g><g transform="translate(-748 -220)"><rect width="16" height="4" transform="translate(756 236)" fill="#2d2d2e"/></g><g transform="translate(-748 -220)"><rect width="4" height="4" transform="translate(856 284)" fill="#2d2d2e"/></g><g transform="translate(-748 -220)"><rect width="4" height="4" transform="translate(848 284)" fill="#2d2d2e"/></g><g transform="translate(-748 -220)"><rect width="4" height="4" transform="translate(840 284)" fill="#2d2d2e"/></g><g transform="translate(-748 -220)"><rect width="8" height="8" transform="translate(790 322)" fill="#a8a7a5"/></g><g transform="translate(-748 -220)"><path d="M800,332H788V320h12Zm-8-4h4v-4h-4Z" fill="#2d2d2e"/></g><g transform="translate(-748 -220)"><rect width="4" height="4" transform="translate(780 320)" fill="#2d2d2e"/></g><g transform="translate(-748 -220)"><rect width="4" height="4" transform="translate(796 268)" fill="#2d2d2e"/></g></svg>