<svg xmlns="http://www.w3.org/2000/svg" width="40" height="40" viewBox="0 0 40 40"><rect width="40" height="40" fill="#fff" opacity="0"/><path d="M13.024,24.913a12.189,12.189,0,0,1-1.575-.1A12,12,0,0,1,2.522,7.062,11.9,11.9,0,0,1,8.2,1.913,1,1,0,0,1,9,3.747a10,10,0,1,0,13.21,13.06,1,1,0,1,1,1.842.779,12.007,12.007,0,0,1-11.027,7.328Z" transform="translate(7.001 7.086)" fill="#5b5756"/><path d="M23,14H12a1,1,0,0,1-1-1V2a1,1,0,0,1,1-1A12,12,0,0,1,24,13,1,1,0,0,1,23,14ZM13,12h8.95A10.019,10.019,0,0,0,13,3.05Z" transform="translate(8 7.004)" fill="#ff7453"/></svg>