<svg xmlns="http://www.w3.org/2000/svg" width="128" height="128" viewBox="0 0 128 128"><g transform="translate(-576 -64)"><path d="M669.665,95.507l14.142-14.142A63.789,63.789,0,0,0,642,64V84.051A43.823,43.823,0,0,1,669.665,95.507Z" fill="#b4f0e0"/></g><g transform="translate(-576 -64)"><path d="M638,84.051V64a64.066,64.066,0,0,0-62,62h20.05A44,44,0,0,1,638,84.051Z" fill="#ff7552"/></g><g transform="translate(-576 -64)"><path d="M686.635,84.193,672.493,98.335A44,44,0,1,1,596.05,130H576A64.015,64.015,0,1,0,686.635,84.193Z" fill="#e8e6e4"/></g><g transform="translate(-576 -64)"><path d="M650,154h-4V124h4.356L640,107.726,629.644,124H634v14h-4V128h-7.644L640,100.274,657.644,128H650Z" fill="#2d2d2e"/><path d="M664,192V178h6l-14-22-14,22h6v14Z" fill="#fff"/><rect width="10" height="4" transform="translate(638 124)" fill="#2d2d2e"/><rect width="10" height="4" transform="translate(654 176)" fill="#2d2d2e"/><path d="M632,192V162h6l-14-22-14,22h6v30Z" fill="#fff"/><rect width="10" height="4" transform="translate(622 160)" fill="#2d2d2e"/><rect width="50" height="4" transform="translate(654 188)" fill="#2d2d2e"/><path d="M650,192H622v-4h24v-8h-7.644L656,152.274,673.644,180H666v10h-4V176h4.356L656,159.726,645.644,176H650Z" fill="#2d2d2e"/><path d="M618,192H576v-4h38V164h-7.644L624,136.274,641.644,164H634v26h-4V160h4.356L624,143.726,613.644,160H618Z" fill="#2d2d2e"/><rect width="4" height="4" transform="translate(654 132)" fill="#2d2d2e"/><rect width="4" height="4" transform="translate(654 140)" fill="#2d2d2e"/></g><g transform="translate(-576 -64)"><path d="M604.049,126.1l-3.994-.208A39.869,39.869,0,0,1,637.9,88.055l.206,3.994A35.88,35.88,0,0,0,604.049,126.1Z" fill="#2d2d2e"/></g></svg>