<svg width="40" height="40" viewBox="0 0 40 40" fill="none" xmlns="http://www.w3.org/2000/svg">
<path d="M26.5 17.9677C26.5 17.4333 26.9477 17 27.5 17C28.0523 17 28.5 17.4333 28.5 17.9677V31.0323C28.5 31.5667 28.0523 32 27.5 32C26.9477 32 26.5 31.5667 26.5 31.0323V17.9677Z" fill="#5E5A5A"/>
<path d="M20.5 19.9032C19.9477 19.9032 19.5 20.3365 19.5 20.871V31.0323C19.5 31.5667 19.9477 32 20.5 32C21.0523 32 21.5 31.5667 21.5 31.0323V20.871C21.5 20.3365 21.0523 19.9032 20.5 19.9032Z" fill="#5E5A5A"/>
<path d="M12.5 23.2903C12.5 22.7559 12.9477 22.3226 13.5 22.3226C14.0523 22.3226 14.5 22.7559 14.5 23.2903V31.0323C14.5 31.5667 14.0523 32 13.5 32C12.9477 32 12.5 31.5667 12.5 31.0323V23.2903Z" fill="#5E5A5A"/>
<path d="M9 26.1935C9 25.6591 9.44772 25.2258 10 25.2258C10.5523 25.2258 11 25.6591 11 26.1935V31.0323C11 31.5667 10.5523 32 10 32C9.44772 32 9 31.5667 9 31.0323V26.1935Z" fill="#5E5A5A"/>
<path d="M16 24.7419C16 24.2075 16.4477 23.7742 17 23.7742C17.5523 23.7742 18 24.2075 18 24.7419V31.0323C18 31.5667 17.5523 32 17 32C16.4477 32 16 31.5667 16 31.0323V24.7419Z" fill="#5E5A5A"/>
<path d="M24 19.9032C23.4477 19.9032 23 20.3365 23 20.871V31.0323C23 31.5667 23.4477 32 24 32C24.5523 32 25 31.5667 25 31.0323V20.871C25 20.3365 24.5523 19.9032 24 19.9032Z" fill="#5E5A5A"/>
<path d="M31 18.4516C30.4477 18.4516 30 18.8849 30 19.4194V31.0323C30 31.5667 30.4477 32 31 32C31.5523 32 32 31.5667 32 31.0323V19.4194C32 18.8849 31.5523 18.4516 31 18.4516Z" fill="#5E5A5A"/>
<path fill-rule="evenodd" clip-rule="evenodd" d="M26 8.99861C26 8.44709 26.4477 8 27 8H31C31.5523 8 32 8.44709 32 8.99861V12.9931C32 13.5446 31.5523 13.9917 31 13.9917C30.4477 13.9917 30 13.5446 30 12.9931V11.4095L24.7071 16.695C24.3166 17.085 23.6834 17.085 23.2929 16.695L22 15.4039L17.2071 20.1902C16.8166 20.5802 16.1834 20.5802 15.7929 20.1902L14.0016 18.4014L9.70874 22.7059C9.31911 23.0968 8.68595 23.0982 8.29453 22.7091C7.9031 22.3201 7.90164 21.6878 8.29126 21.2969L13.2913 16.283C13.4786 16.095 13.7332 15.9892 13.9988 15.9889C14.2645 15.9886 14.5193 16.0938 14.7071 16.2814L16.5 18.0718L21.2929 13.2856C21.6834 12.8956 22.3166 12.8956 22.7071 13.2856L24 14.5767L28.5858 9.99723H27C26.4477 9.99723 26 9.55013 26 8.99861Z" fill="#FF7453"/>
</svg>
