<svg id="Store_Icon_Small" xmlns="http://www.w3.org/2000/svg" width="40" height="40" viewBox="0 0 40 40">
  <rect id="Rectangle_76" data-name="Rectangle 76" width="40" height="40" fill="#fff" opacity="0"/>
  <path id="Path_69" data-name="Path 69" d="M841.913,509.988h-2.084l.018,10.133a1.043,1.043,0,0,1-1.042,1.044h-3.2V517a3.129,3.129,0,0,0-3.131-3.128h-2A3.129,3.129,0,0,0,827.35,517v4.169h-3.2a1.044,1.044,0,0,1-1.043-1.044l.018-10.133h-2.083l-.019,10.129v.006a3.129,3.129,0,0,0,3.131,3.127H838.8a3.128,3.128,0,0,0,3.13-3.127v-.006Zm-8.4,11.175h-4.079V517a1.044,1.044,0,0,1,1.043-1.043h1.993A1.044,1.044,0,0,1,833.518,517Z" transform="translate(-811.75 -491.25)" fill="#5e5a5a"/>
  <path id="Path_70" data-name="Path 70" d="M843.285,506.176l-2.454-4.74a3.131,3.131,0,0,0-2.984-2.186H825.111a3.131,3.131,0,0,0-2.985,2.186l-2.453,4.74a4.163,4.163,0,0,0,.38,3.367,4.46,4.46,0,0,0,2.511,2.059,4.169,4.169,0,0,0,2.083.228,6.145,6.145,0,0,0,3.107-1.715,4.892,4.892,0,0,0,6.745.7,4.731,4.731,0,0,0,.7-.7,6.575,6.575,0,0,0,3.106,1.715,3.533,3.533,0,0,0,2.083-.228,6.382,6.382,0,0,0,2.511-2.059A4.167,4.167,0,0,0,843.285,506.176Zm-16.572.99a2.609,2.609,0,0,1-4.861,1.316,2.09,2.09,0,0,1-.19-1.683l2.455-4.736a1.044,1.044,0,0,1,.994-.73h2.051S826.69,506.968,826.713,507.166Zm7.107-5.833L834,507.3a2.525,2.525,0,0,1-5.049,0l.23-5.969Zm7.285,7.149a2.609,2.609,0,0,1-4.861-1.316c.017-.149-.4-5.833-.4-5.833h2.005a1.042,1.042,0,0,1,.993.73l2.455,4.736A2.082,2.082,0,0,1,841.1,508.482Z" transform="translate(-811.75 -491.25)" fill="#ff7453"/>
</svg>
